<svg width="240" height="240" viewBox="0 0 240 240" fill="none" xmlns="http://www.w3.org/2000/svg">
<circle cx="120" cy="120" r="73.5" fill="url(#paint0_radial)" stroke="url(#paint1_linear)"/>
<circle cx="120" cy="120" r="32" fill="white"/>
<g data-figma-bg-blur-radius="8.15485">
<mask id="path-inside-1" fill="white">
<path fill-rule="evenodd" clip-rule="evenodd" d="M84.1987 99.1739C73.1928 111.929 73.5978 131.06 85.519 142.981C85.5403 143.002 85.5616 143.023 85.5828 143.045L109.335 119.293L86.7071 96.6655L84.1987 99.1739Z"/>
</mask>
<path fill-rule="evenodd" clip-rule="evenodd" d="M84.1987 99.1739C73.1928 111.929 73.5978 131.06 85.519 142.981C85.5403 143.002 85.5616 143.023 85.5828 143.045L109.335 119.293L86.7071 96.6655L84.1987 99.1739Z" fill="#0091FF" fill-opacity="0.20807"/>
<path d="M84.1987 99.1739L83.4916 98.4668L83.4656 98.4928L83.4416 98.5206L84.1987 99.1739ZM85.5828 143.045L84.8777 143.754L85.5848 144.457L86.2899 143.752L85.5828 143.045ZM109.335 119.293L110.042 120L110.749 119.293L110.042 118.586L109.335 119.293ZM86.7071 96.6655L87.4142 95.9584L86.7071 95.2513L86 95.9584L86.7071 96.6655ZM86.2261 142.274C74.6873 130.735 74.281 112.198 84.9558 99.8272L83.4416 98.5206C72.1047 111.659 72.5084 131.385 84.8119 143.688L86.2261 142.274ZM86.288 142.336C86.2673 142.315 86.2467 142.294 86.2261 142.274L84.8119 143.688C84.8338 143.71 84.8558 143.732 84.8777 143.754L86.288 142.336ZM108.627 118.586L84.8757 142.337L86.2899 143.752L110.042 120L108.627 118.586ZM86 97.3726L108.627 120L110.042 118.586L87.4142 95.9584L86 97.3726ZM84.9058 99.881L87.4142 97.3726L86 95.9584L83.4916 98.4668L84.9058 99.881Z" fill="url(#paint2_radial)" mask="url(#path-inside-1)"/>
</g>
<path data-figma-bg-blur-radius="13.5914" d="M157.768 33.9739C158.312 32.7539 159.692 32.2082 160.872 32.7581C165.92 35.1114 177.452 41.2011 187.497 51.6946C197.324 61.9606 203.119 72.2271 205.48 76.9026C206.079 78.0871 205.548 79.5055 204.307 80.0677L120.175 118.165L157.768 33.9739Z" fill="url(#paint3_radial)" stroke="url(#paint4_radial)"/>
<defs>
<radialGradient id="paint0_radial" cx="0" cy="0" r="1" gradientUnits="userSpaceOnUse" gradientTransform="translate(120 46) rotate(90) scale(106.945 106.486)">
<stop stop-color="#46FF7E"/>
<stop offset="1" stop-color="#2D62FF"/>
</radialGradient>
<linearGradient id="paint1_linear" x1="19.8526" y1="85.7369" x2="88.3373" y2="169.699" gradientUnits="userSpaceOnUse">
<stop stop-color="white" stop-opacity="0.600574"/>
<stop offset="1" stop-color="white" stop-opacity="0.01"/>
</linearGradient>
<radialGradient id="paint2_radial" cx="0" cy="0" r="1" gradientTransform="matrix(-24.1906 17.2603 -15.4177 -22.3805 96.3453 101.856)" gradientUnits="userSpaceOnUse">
<stop stop-color="white"/>
<stop offset="1" stop-color="white" stop-opacity="0.01"/>
</radialGradient>
<radialGradient id="paint3_radial" cx="0" cy="0" r="1" gradientUnits="userSpaceOnUse" gradientTransform="translate(158.324 45.4819) rotate(38.5254) scale(39.8869 92.9428)">
<stop stop-color="#CCE4FF" stop-opacity="0.849615"/>
<stop offset="1" stop-color="#087AFF" stop-opacity="0.369052"/>
</radialGradient>
<radialGradient id="paint4_radial" cx="0" cy="0" r="1" gradientUnits="userSpaceOnUse" gradientTransform="translate(163.182 39.2592) rotate(53.9614) scale(55.9165 53.5211)">
<stop stop-color="white"/>
<stop offset="1" stop-color="white" stop-opacity="0.01"/>
</radialGradient>
</defs>
</svg>
